<svg width="70" height="70" viewBox="0 0 70 70" fill="none" xmlns="http://www.w3.org/2000/svg">
<circle cx="3.44262" cy="3.44262" r="3.44262" transform="matrix(1.19249e-08 -1 -1 -1.19249e-08 70 70)" fill="#3572EF"/>
<ellipse cx="3.44262" cy="3.44262" rx="3.44262" ry="3.44262" transform="matrix(1.19249e-08 -1 -1 -1.19249e-08 57.3771 70)" fill="#3572EF"/>
<ellipse cx="3.44262" cy="3.44262" rx="3.44262" ry="3.44262" transform="matrix(1.19249e-08 -1 -1 -1.19249e-08 44.7541 70)" fill="#3572EF"/>
<ellipse cx="3.44262" cy="3.44262" rx="3.44262" ry="3.44262" transform="matrix(1.19249e-08 -1 -1 -1.19249e-08 32.1312 70)" fill="#3572EF"/>
<ellipse cx="3.44262" cy="3.44262" rx="3.44262" ry="3.44262" transform="matrix(1.19249e-08 -1 -1 -1.19249e-08 19.5082 70)" fill="#3572EF"/>
<ellipse cx="3.44262" cy="3.44262" rx="3.44262" ry="3.44262" transform="matrix(1.19249e-08 -1 -1 -1.19249e-08 6.88525 70)" fill="#3572EF"/>
<ellipse cx="3.44262" cy="3.44262" rx="3.44262" ry="3.44262" transform="matrix(1.19249e-08 -1 -1 -1.19249e-08 70 57.3771)" fill="#3572EF"/>
<circle cx="3.44262" cy="3.44262" r="3.44262" transform="matrix(1.19249e-08 -1 -1 -1.19249e-08 57.3771 57.3771)" fill="#3572EF"/>
<ellipse cx="3.44262" cy="3.44262" rx="3.44262" ry="3.44262" transform="matrix(1.19249e-08 -1 -1 -1.19249e-08 44.7541 57.3771)" fill="#3572EF"/>
<ellipse cx="3.44262" cy="3.44262" rx="3.44262" ry="3.44262" transform="matrix(1.19249e-08 -1 -1 -1.19249e-08 32.1312 57.3771)" fill="#3572EF"/>
<ellipse cx="3.44262" cy="3.44262" rx="3.44262" ry="3.44262" transform="matrix(1.19249e-08 -1 -1 -1.19249e-08 19.5082 57.3771)" fill="#3572EF"/>
<ellipse cx="3.44262" cy="3.44262" rx="3.44262" ry="3.44262" transform="matrix(1.19249e-08 -1 -1 -1.19249e-08 6.88525 57.3771)" fill="#3572EF"/>
<ellipse cx="3.44262" cy="3.44262" rx="3.44262" ry="3.44262" transform="matrix(1.19249e-08 -1 -1 -1.19249e-08 70 44.7542)" fill="#3572EF"/>
<ellipse cx="3.44262" cy="3.44262" rx="3.44262" ry="3.44262" transform="matrix(1.19249e-08 -1 -1 -1.19249e-08 57.3771 44.7542)" fill="#3572EF"/>
<circle cx="3.44262" cy="3.44262" r="3.44262" transform="matrix(1.19249e-08 -1 -1 -1.19249e-08 44.7541 44.7542)" fill="#3572EF"/>
<ellipse cx="3.44262" cy="3.44262" rx="3.44262" ry="3.44262" transform="matrix(1.19249e-08 -1 -1 -1.19249e-08 32.1312 44.7542)" fill="#3572EF"/>
<ellipse cx="3.44262" cy="3.44262" rx="3.44262" ry="3.44262" transform="matrix(1.19249e-08 -1 -1 -1.19249e-08 19.5082 44.7542)" fill="#3572EF"/>
<ellipse cx="3.44262" cy="3.44262" rx="3.44262" ry="3.44262" transform="matrix(1.19249e-08 -1 -1 -1.19249e-08 6.88525 44.7542)" fill="#3572EF"/>
<ellipse cx="3.44262" cy="3.44262" rx="3.44262" ry="3.44262" transform="matrix(1.19249e-08 -1 -1 -1.19249e-08 70 32.1311)" fill="#3572EF"/>
<ellipse cx="3.44262" cy="3.44262" rx="3.44262" ry="3.44262" transform="matrix(1.19249e-08 -1 -1 -1.19249e-08 57.3771 32.1311)" fill="#3572EF"/>
<ellipse cx="3.44262" cy="3.44262" rx="3.44262" ry="3.44262" transform="matrix(1.19249e-08 -1 -1 -1.19249e-08 44.7541 32.1311)" fill="#3572EF"/>
<ellipse cx="3.44262" cy="3.44262" rx="3.44262" ry="3.44262" transform="matrix(1.19249e-08 -1 -1 -1.19249e-08 70 19.5082)" fill="#3572EF"/>
<ellipse cx="3.44262" cy="3.44262" rx="3.44262" ry="3.44262" transform="matrix(1.19249e-08 -1 -1 -1.19249e-08 57.3771 19.5082)" fill="#3572EF"/>
<ellipse cx="3.44262" cy="3.44262" rx="3.44262" ry="3.44262" transform="matrix(1.19249e-08 -1 -1 -1.19249e-08 44.7541 19.5082)" fill="#3572EF"/>
<ellipse cx="3.44262" cy="3.44262" rx="3.44262" ry="3.44262" transform="matrix(1.19249e-08 -1 -1 -1.19249e-08 70 6.88525)" fill="#3572EF"/>
<ellipse cx="3.44262" cy="3.44262" rx="3.44262" ry="3.44262" transform="matrix(1.19249e-08 -1 -1 -1.19249e-08 57.3771 6.88525)" fill="#3572EF"/>
<ellipse cx="3.44262" cy="3.44262" rx="3.44262" ry="3.44262" transform="matrix(1.19249e-08 -1 -1 -1.19249e-08 44.7541 6.88525)" fill="#3572EF"/>
</svg>
