<svg width="50" height="50" viewBox="0 0 50 50" fill="none" xmlns="http://www.w3.org/2000/svg">
<circle cx="25" cy="25" r="24" fill="#E1F8FA" stroke="url(#paint0_linear_215_55)" stroke-width="2"/>
<path d="M25.9966 29.7112C27.5646 28.7351 28.7718 27.2751 29.4357 25.5521C30.0995 23.8291 30.1839 21.9368 29.6761 20.1616C29.1682 18.3864 28.0957 16.8248 26.6209 15.7131C25.1461 14.6013 23.3492 14 21.502 14C19.6548 14 17.8579 14.6013 16.383 15.7131C14.9082 16.8248 13.8358 18.3864 13.3279 20.1616C12.8201 21.9368 12.9044 23.8291 13.5683 25.5521C14.2322 27.2751 15.4394 28.7351 17.0073 29.7112C14.4256 30.556 12.1026 32.1344 10.2347 34.3563C10.064 34.5594 9.98086 34.8219 10.0037 35.0861C10.0266 35.3503 10.1535 35.5947 10.3566 35.7654C10.5597 35.9361 10.8223 36.0191 11.0867 35.9963C11.3511 35.9734 11.5955 35.8465 11.7663 35.6435C14.2755 32.6493 17.7337 31.0009 21.4957 31.0009C25.2577 31.0009 28.7159 32.6493 31.2314 35.6435C31.4022 35.8465 31.6467 35.9734 31.911 35.9963C32.1754 36.0191 32.438 35.9361 32.6411 35.7654C32.8442 35.5947 32.9711 35.3503 32.994 35.0861C33.0169 34.8219 32.9338 34.5594 32.763 34.3563C30.8951 32.1344 28.5722 30.556 25.9966 29.7112ZM14.9944 22.503C14.9944 21.2177 15.3757 19.9613 16.0901 18.8926C16.8045 17.824 17.8198 16.991 19.0078 16.4992C20.1957 16.0073 21.5029 15.8786 22.7641 16.1294C24.0252 16.3801 25.1836 16.999 26.0928 17.9079C27.0021 18.8167 27.6213 19.9746 27.8721 21.2352C28.123 22.4957 27.9942 23.8024 27.5022 24.9898C27.0101 26.1772 26.1768 27.1921 25.1077 27.9062C24.0385 28.6203 22.7816 29.0014 21.4957 29.0014C19.7721 28.9994 18.1196 28.3141 16.9008 27.0958C15.682 25.8776 14.9964 24.2258 14.9944 22.503ZM39.7069 26.7094L35.7061 30.7085C35.6132 30.8014 35.5029 30.8752 35.3815 30.9255C35.26 30.9758 35.1299 31.0017 34.9984 31.0017C34.867 31.0017 34.7368 30.9758 34.6154 30.9255C34.494 30.8752 34.3837 30.8014 34.2908 30.7085L32.2904 28.709C32.1027 28.5214 31.9973 28.2669 31.9973 28.0016C31.9973 27.7363 32.1027 27.4819 32.2904 27.2943C32.4781 27.1067 32.7326 27.0013 32.998 27.0013C33.2635 27.0013 33.518 27.1067 33.7057 27.2943L34.9984 28.5877L38.2916 25.2948C38.4793 25.1072 38.7338 25.0018 38.9992 25.0018C39.2647 25.0018 39.5192 25.1072 39.7069 25.2948C39.8946 25.4824 40 25.7368 40 26.0021C40 26.2674 39.8946 26.5218 39.7069 26.7094Z" fill="url(#paint1_linear_215_55)"/>
<defs>
<linearGradient id="paint0_linear_215_55" x1="24.9837" y1="0" x2="24.9837" y2="54.5462" gradientUnits="userSpaceOnUse">
<stop stop-color="#00CCDD"/>
<stop offset="0.5" stop-color="#3572EF"/>
<stop offset="1" stop-color="#050C9C"/>
</linearGradient>
<linearGradient id="paint1_linear_215_55" x1="24.9902" y1="14" x2="24.9902" y2="38.0003" gradientUnits="userSpaceOnUse">
<stop stop-color="#00CCDD"/>
<stop offset="0.5" stop-color="#3572EF"/>
<stop offset="1" stop-color="#050C9C"/>
</linearGradient>
</defs>
</svg>
