<svg width="50" height="50" viewBox="0 0 50 50" fill="none" xmlns="http://www.w3.org/2000/svg">
<rect x="1" y="1" width="48" height="48" rx="3" fill="#E2F4FC" stroke="url(#paint0_linear_199_91)" stroke-width="2"/>
<path d="M35.8333 11H14.1667C13.592 11 13.0409 11.236 12.6346 11.6561C12.2283 12.0762 12 12.6459 12 13.24V21.08C12 28.4608 15.4558 32.9337 18.3551 35.3865C21.4778 38.0269 24.5843 38.9229 24.7197 38.9607C24.9059 39.0131 25.1022 39.0131 25.2884 38.9607C25.4239 38.9229 28.5263 38.0269 31.653 35.3865C34.5442 32.9337 38 28.4608 38 21.08V13.24C38 12.6459 37.7717 12.0762 37.3654 11.6561C36.9591 11.236 36.408 11 35.8333 11ZM35.8333 21.08C35.8333 26.2698 33.9835 30.4823 30.3354 33.5987C28.7474 34.9507 26.9413 36.0028 25 36.7067C23.0841 36.0151 21.3003 34.9817 19.7296 33.6533C16.0381 30.5313 14.1667 26.302 14.1667 21.08V13.24H35.8333V21.08ZM18.8169 25.2324C18.6136 25.0222 18.4994 24.7372 18.4994 24.44C18.4994 24.1428 18.6136 23.8577 18.8169 23.6476C19.0202 23.4374 19.2959 23.3193 19.5833 23.3193C19.8708 23.3193 20.1465 23.4374 20.3498 23.6476L22.8333 26.2166L29.6502 19.1676C29.7509 19.0635 29.8704 18.981 30.0019 18.9247C30.1334 18.8683 30.2743 18.8394 30.4167 18.8394C30.559 18.8394 30.7 18.8683 30.8315 18.9247C30.963 18.981 31.0825 19.0635 31.1831 19.1676C31.2838 19.2716 31.3636 19.3952 31.4181 19.5311C31.4726 19.6671 31.5006 19.8128 31.5006 19.96C31.5006 20.1071 31.4726 20.2529 31.4181 20.3888C31.3636 20.5248 31.2838 20.6483 31.1831 20.7524L23.5998 28.5924C23.4992 28.6965 23.3797 28.7791 23.2482 28.8355C23.1167 28.8918 22.9757 28.9208 22.8333 28.9208C22.691 28.9208 22.55 28.8918 22.4185 28.8355C22.287 28.7791 22.1675 28.6965 22.0669 28.5924L18.8169 25.2324Z" fill="url(#paint1_linear_199_91)"/>
<defs>
<linearGradient id="paint0_linear_199_91" x1="24.9837" y1="0" x2="24.9837" y2="54.5462" gradientUnits="userSpaceOnUse">
<stop stop-color="#00CCDD"/>
<stop offset="0.5" stop-color="#3572EF"/>
<stop offset="1" stop-color="#050C9C"/>
</linearGradient>
<linearGradient id="paint1_linear_199_91" x1="24.9915" y1="11" x2="24.9915" y2="41.5459" gradientUnits="userSpaceOnUse">
<stop stop-color="#00CCDD"/>
<stop offset="0.5" stop-color="#3572EF"/>
<stop offset="1" stop-color="#050C9C"/>
</linearGradient>
</defs>
</svg>
