<svg width="50" height="50" viewBox="0 0 50 50" fill="none" xmlns="http://www.w3.org/2000/svg">
<circle cx="25" cy="25" r="24" fill="#E2F4FC" stroke="url(#paint0_linear_215_75)" stroke-width="2"/>
<path d="M38 16.125H35V14.0417C35 13.7654 34.8946 13.5004 34.7071 13.3051C34.5196 13.1097 34.2652 13 34 13H16C15.7348 13 15.4804 13.1097 15.2929 13.3051C15.1054 13.5004 15 13.7654 15 14.0417V16.125H12C11.4696 16.125 10.9609 16.3445 10.5858 16.7352C10.2107 17.1259 10 17.6558 10 18.2083V20.2917C10 21.673 10.5268 22.9978 11.4645 23.9745C11.9288 24.4582 12.48 24.8418 13.0866 25.1035C13.6932 25.3653 14.3434 25.5 15 25.5H15.4563C16.0453 27.4446 17.1685 29.1667 18.6869 30.4536C20.2053 31.7404 22.0524 32.5356 24 32.7409V35.9167H21C20.7348 35.9167 20.4804 36.0264 20.2929 36.2218C20.1054 36.4171 20 36.6821 20 36.9583C20 37.2346 20.1054 37.4996 20.2929 37.6949C20.4804 37.8903 20.7348 38 21 38H29C29.2652 38 29.5196 37.8903 29.7071 37.6949C29.8946 37.4996 30 37.2346 30 36.9583C30 36.6821 29.8946 36.4171 29.7071 36.2218C29.5196 36.0264 29.2652 35.9167 29 35.9167H26V32.737C29.9925 32.3164 33.305 29.3984 34.51 25.5H35C36.3261 25.5 37.5979 24.9513 38.5355 23.9745C39.4732 22.9978 40 21.673 40 20.2917V18.2083C40 17.6558 39.7893 17.1259 39.4142 16.7352C39.0391 16.3445 38.5304 16.125 38 16.125ZM15 23.4167C14.2044 23.4167 13.4413 23.0874 12.8787 22.5014C12.3161 21.9153 12 21.1205 12 20.2917V18.2083H15V22.375C15 22.7222 15.0163 23.0694 15.0487 23.4167H15ZM33 22.2578C33 26.8828 29.375 30.6745 25 30.7083C22.8783 30.7083 20.8434 29.8304 19.3431 28.2676C17.8429 26.7048 17 24.5851 17 22.375V15.0833H33V22.2578ZM38 20.2917C38 21.1205 37.6839 21.9153 37.1213 22.5014C36.5587 23.0874 35.7956 23.4167 35 23.4167H34.9375C34.9785 23.0319 34.9994 22.645 35 22.2578V18.2083H38V20.2917Z" fill="url(#paint1_linear_215_75)"/>
<defs>
<linearGradient id="paint0_linear_215_75" x1="24.9837" y1="0" x2="24.9837" y2="54.5462" gradientUnits="userSpaceOnUse">
<stop stop-color="#00CCDD"/>
<stop offset="0.5" stop-color="#3572EF"/>
<stop offset="1" stop-color="#050C9C"/>
</linearGradient>
<linearGradient id="paint1_linear_215_75" x1="24.9902" y1="13" x2="24.9902" y2="40.2731" gradientUnits="userSpaceOnUse">
<stop stop-color="#00CCDD"/>
<stop offset="0.5" stop-color="#3572EF"/>
<stop offset="1" stop-color="#050C9C"/>
</linearGradient>
</defs>
</svg>
