<svg width="50" height="50" viewBox="0 0 50 50" fill="none" xmlns="http://www.w3.org/2000/svg">
<rect x="1" y="1" width="48" height="48" rx="3" fill="#E2F4FC" stroke="url(#paint0_linear_197_79)" stroke-width="2"/>
<path d="M25 11C22.2311 11 19.5243 11.8211 17.222 13.3594C14.9197 14.8978 13.1253 17.0843 12.0657 19.6424C11.0061 22.2006 10.7288 25.0155 11.269 27.7313C11.8092 30.447 13.1426 32.9416 15.1005 34.8995C17.0584 36.8574 19.553 38.1908 22.2687 38.731C24.9845 39.2712 27.7994 38.9939 30.3576 37.9343C32.9157 36.8747 35.1022 35.0803 36.6406 32.778C38.1789 30.4757 39 27.7689 39 25C38.9957 21.2883 37.5194 17.7298 34.8948 15.1052C32.2702 12.4806 28.7117 11.0043 25 11ZM36.8462 25C36.8471 26.0925 36.6962 27.1798 36.3979 28.2308H31.2139C31.5441 26.0896 31.5441 23.9104 31.2139 21.7692H36.3979C36.6962 22.8202 36.8471 23.9075 36.8462 25ZM21.5 30.3846H28.5C27.8104 32.6443 26.6132 34.7163 25 36.4423C23.3874 34.7158 22.1903 32.6439 21.5 30.3846ZM20.975 28.2308C20.6053 26.0928 20.6053 23.9072 20.975 21.7692H29.0358C29.4055 23.9072 29.4055 26.0928 29.0358 28.2308H20.975ZM13.1539 25C13.1529 23.9075 13.3038 22.8202 13.6021 21.7692H18.7862C18.4559 23.9104 18.4559 26.0896 18.7862 28.2308H13.6021C13.3038 27.1798 13.1529 26.0925 13.1539 25ZM28.5 19.6154H21.5C22.1896 17.3557 23.3868 15.2837 25 13.5577C26.6126 15.2842 27.8097 17.356 28.5 19.6154ZM35.5444 19.6154H30.7494C30.1451 17.3981 29.1265 15.3153 27.7475 13.4769C29.4137 13.8772 30.9736 14.633 32.3203 15.6925C33.667 16.752 34.7687 18.0902 35.5498 19.6154H35.5444ZM22.2525 13.4769C20.8735 15.3153 19.8549 17.3981 19.2506 19.6154H14.4502C15.2313 18.0902 16.333 16.752 17.6797 15.6925C19.0265 14.633 20.5864 13.8772 22.2525 13.4769ZM14.4502 30.3846H19.2506C19.8549 32.6019 20.8735 34.6847 22.2525 36.5231C20.5864 36.1228 19.0265 35.367 17.6797 34.3075C16.333 33.248 15.2313 31.9098 14.4502 30.3846ZM27.7475 36.5231C29.1265 34.6847 30.1451 32.6019 30.7494 30.3846H35.5498C34.7687 31.9098 33.667 33.248 32.3203 34.3075C30.9736 35.367 29.4137 36.1228 27.7475 36.5231Z" fill="url(#paint1_linear_197_79)"/>
<defs>
<linearGradient id="paint0_linear_197_79" x1="24.9837" y1="0" x2="24.9837" y2="54.5462" gradientUnits="userSpaceOnUse">
<stop stop-color="#00CCDD"/>
<stop offset="0.5" stop-color="#3572EF"/>
<stop offset="1" stop-color="#050C9C"/>
</linearGradient>
<linearGradient id="paint1_linear_197_79" x1="24.9909" y1="11" x2="24.9909" y2="41.5459" gradientUnits="userSpaceOnUse">
<stop stop-color="#00CCDD"/>
<stop offset="0.5" stop-color="#3572EF"/>
<stop offset="1" stop-color="#050C9C"/>
</linearGradient>
</defs>
</svg>
