<svg width="50" height="50" viewBox="0 0 50 50" fill="none" xmlns="http://www.w3.org/2000/svg">
<rect x="1" y="1" width="48" height="48" rx="3" fill="#E2F4FC" stroke="url(#paint0_linear_197_71)" stroke-width="2"/>
<path d="M38.2946 17.0585C38.2293 16.8971 38.1258 16.7539 37.993 16.6412C37.8602 16.5286 37.702 16.4498 37.5321 16.4117C37.3621 16.3736 37.1855 16.3773 37.0173 16.4224C36.8491 16.4676 36.6943 16.5528 36.5663 16.6709L31.1417 21.6763L28.8224 21.1783L28.3243 18.8593L33.3304 13.4353C33.4484 13.3073 33.5337 13.1526 33.5789 12.9844C33.624 12.8162 33.6277 12.6396 33.5896 12.4696C33.5514 12.2997 33.4727 12.1416 33.36 12.0088C33.2473 11.876 33.1041 11.7725 32.9427 11.7072C31.4714 11.1121 29.8764 10.8874 28.2979 11.0528C26.7193 11.2183 25.2056 11.7688 23.8897 12.6561C22.5738 13.5434 21.496 14.7402 20.7509 16.1415C20.0058 17.5427 19.6163 19.1055 19.6167 20.6925C19.6149 22.0326 19.8899 23.3586 20.4243 24.5875L12.3196 31.5943C12.2994 31.6105 12.2806 31.6293 12.2618 31.6468C11.4539 32.4546 11 33.5502 11 34.6926C11 35.2583 11.1114 35.8184 11.3279 36.341C11.5444 36.8636 11.8617 37.3384 12.2618 37.7384C12.6618 38.1384 13.1367 38.4557 13.6593 38.6721C14.182 38.8886 14.7422 39 15.3079 39C16.4504 39 17.5462 38.5462 18.354 37.7384C18.3715 37.7209 18.3904 37.7007 18.4065 37.6819L25.4128 29.5755C26.8887 30.2232 28.5028 30.4927 30.1091 30.3596C31.7154 30.2264 33.2631 29.6948 34.6121 28.8128C35.9611 27.9309 37.0689 26.7264 37.835 25.3085C38.6012 23.8906 39.0016 22.3041 39 20.6925C39.0021 19.4469 38.7625 18.2128 38.2946 17.0585ZM29.3083 28.2295C28.0337 28.2278 26.7802 27.9037 25.6645 27.2874C25.4484 27.168 25.1977 27.1265 24.9546 27.1699C24.7115 27.2133 24.4907 27.3389 24.3292 27.5256L16.8047 36.239C16.3975 36.6259 15.8553 36.8383 15.2937 36.8311C14.7321 36.8239 14.1956 36.5977 13.7984 36.2006C13.4013 35.8035 13.175 35.2669 13.1678 34.7054C13.1606 34.1439 13.3731 33.6017 13.7599 33.1946L22.4676 25.6723C22.6547 25.5107 22.7806 25.2897 22.8239 25.0464C22.8673 24.803 22.8256 24.5521 22.7059 24.3358C22.0194 23.0944 21.6973 21.6845 21.7765 20.2682C21.8556 18.8519 22.333 17.4867 23.1535 16.3295C23.9741 15.1723 25.1046 14.2702 26.415 13.7268C27.7255 13.1834 29.1627 13.0208 30.5615 13.2577L26.3618 17.8082C26.2449 17.9349 26.1602 18.0879 26.1148 18.2542C26.0693 18.4205 26.0645 18.5952 26.1006 18.7638L26.8625 22.3075C26.9061 22.5102 27.0073 22.696 27.1539 22.8426C27.3005 22.9892 27.4863 23.0904 27.689 23.1339L31.2359 23.8957C31.4045 23.9319 31.5792 23.927 31.7456 23.8816C31.9119 23.8362 32.0648 23.7515 32.1916 23.6346L36.7426 19.4354C36.9241 20.5162 36.8679 21.6235 36.5779 22.6803C36.288 23.7372 35.7713 24.7182 35.0638 25.5552C34.3562 26.3921 33.4748 27.0649 32.4809 27.5268C31.487 27.9886 30.4043 28.2284 29.3083 28.2295Z" fill="url(#paint1_linear_197_71)"/>
<defs>
<linearGradient id="paint0_linear_197_71" x1="24.9837" y1="0" x2="24.9837" y2="54.5462" gradientUnits="userSpaceOnUse">
<stop stop-color="#00CCDD"/>
<stop offset="0.5" stop-color="#3572EF"/>
<stop offset="1" stop-color="#050C9C"/>
</linearGradient>
<linearGradient id="paint1_linear_197_71" x1="24.9909" y1="11" x2="24.9909" y2="41.5459" gradientUnits="userSpaceOnUse">
<stop stop-color="#00CCDD"/>
<stop offset="0.5" stop-color="#3572EF"/>
<stop offset="1" stop-color="#050C9C"/>
</linearGradient>
</defs>
</svg>
