<svg width="50" height="50" viewBox="0 0 50 50" fill="none" xmlns="http://www.w3.org/2000/svg">
<circle cx="25" cy="25" r="24" fill="#E2F4FC" stroke="url(#paint0_linear_215_44)" stroke-width="2"/>
<path d="M38.249 19.015C37.9675 18.6959 37.6212 18.4404 37.2333 18.2654C36.8454 18.0904 36.4247 17.9999 35.9991 18H28.9994V16C28.9994 14.6739 28.4726 13.4021 27.535 12.4645C26.5973 11.5268 25.3256 11 23.9995 11C23.8138 10.9999 23.6316 11.0515 23.4736 11.1491C23.3155 11.2467 23.1877 11.3864 23.1046 11.5525L18.3822 21H12.9999C12.4695 21 11.9608 21.2107 11.5858 21.5858C11.2107 21.9609 11 22.4696 11 23V34C11 34.5304 11.2107 35.0391 11.5858 35.4142C11.9608 35.7893 12.4695 36 12.9999 36H34.4992C35.23 36.0003 35.9358 35.7337 36.4841 35.2503C37.0323 34.767 37.3852 34.1001 37.4766 33.375L38.9765 21.375C39.0297 20.9525 38.9923 20.5236 38.8669 20.1167C38.7414 19.7098 38.5308 19.3342 38.249 19.015ZM12.9999 23H17.9998V34H12.9999V23ZM36.9916 21.125L35.4916 33.125C35.4612 33.3667 35.3435 33.589 35.1608 33.7501C34.9781 33.9112 34.7428 34.0001 34.4992 34H19.9997V22.2362L24.5883 13.0575C25.2684 13.1936 25.8803 13.5612 26.3199 14.0977C26.7595 14.6342 26.9996 15.3064 26.9994 16V19C26.9994 19.2652 27.1048 19.5196 27.2923 19.7071C27.4799 19.8946 27.7342 20 27.9994 20H35.9991C36.141 20 36.2813 20.0301 36.4107 20.0885C36.54 20.1468 36.6555 20.232 36.7493 20.3384C36.8432 20.4448 36.9134 20.57 36.9551 20.7056C36.9969 20.8413 37.0093 20.9842 36.9916 21.125Z" fill="url(#paint1_linear_215_44)"/>
<defs>
<linearGradient id="paint0_linear_215_44" x1="24.9837" y1="0" x2="24.9837" y2="54.5462" gradientUnits="userSpaceOnUse">
<stop stop-color="#00CCDD"/>
<stop offset="0.5" stop-color="#3572EF"/>
<stop offset="1" stop-color="#050C9C"/>
</linearGradient>
<linearGradient id="paint1_linear_215_44" x1="24.9909" y1="11" x2="24.9909" y2="38.2731" gradientUnits="userSpaceOnUse">
<stop stop-color="#00CCDD"/>
<stop offset="0.5" stop-color="#3572EF"/>
<stop offset="1" stop-color="#050C9C"/>
</linearGradient>
</defs>
</svg>
