<svg width="50" height="50" viewBox="0 0 50 50" fill="none" xmlns="http://www.w3.org/2000/svg">
<circle cx="25" cy="25" r="24" fill="#E2F4FC" stroke="url(#paint0_linear_215_67)" stroke-width="2"/>
<path d="M39.8034 21.4885L36.8124 15.1054C36.7022 14.8705 36.5497 14.661 36.3636 14.4889C36.1775 14.3168 35.9615 14.1855 35.7278 14.1025C35.4941 14.0195 35.2474 13.9864 35.0018 14.0052C34.7561 14.0239 34.5163 14.094 34.2961 14.2116L31.3813 15.7655L25.2411 14.0328C25.0835 13.9891 24.9181 13.9891 24.7606 14.0328L18.6204 15.7655L15.7056 14.2116C15.4853 14.094 15.2455 14.0239 14.9999 14.0052C14.7542 13.9864 14.5075 14.0195 14.2738 14.1025C14.0402 14.1855 13.8241 14.3168 13.638 14.4889C13.4519 14.661 13.2994 14.8705 13.1893 15.1054L10.1983 21.4873C10.0881 21.7222 10.0223 21.978 10.0048 22.24C9.98722 22.5021 10.0182 22.7652 10.0961 23.0144C10.1739 23.2637 10.297 23.4941 10.4583 23.6926C10.6196 23.8911 10.816 24.0538 11.0363 24.1713L14.2007 25.8602L20.7042 30.8145C20.8 30.8872 20.9078 30.9402 21.0218 30.9707L28.5227 32.9709C28.6798 33.013 28.8444 33.0109 29.0005 32.9649C29.1566 32.9189 29.2989 32.8305 29.4135 32.7084L35.8677 25.8227L38.9642 24.1713C39.4087 23.934 39.7467 23.518 39.9039 23.015C40.061 22.5119 40.0244 21.9629 39.8022 21.4885H39.8034ZM33.3702 25.6602L29.3373 22.2149C29.1566 22.0605 28.9288 21.9829 28.6977 21.997C28.4666 22.0111 28.2486 22.1159 28.0856 22.2911C25.9982 24.5339 23.6718 24.2501 22.188 23.25L27.2558 17.9994H30.984L34.173 24.8014L33.3702 25.6602ZM14.8664 15.9992L17.2655 17.2769L14.2687 23.6588L11.8743 22.3824L14.8664 15.9992ZM28.4618 30.892L21.6512 29.0768L15.8849 24.6839L19.1665 17.6832L25.0008 16.0342L26.1494 16.358L20.8753 21.8186L20.866 21.8298C20.6674 22.0416 20.516 22.2982 20.4229 22.5807C20.3297 22.8633 20.2973 23.1645 20.3279 23.4622C20.3585 23.7599 20.4514 24.0464 20.5997 24.3007C20.748 24.555 20.9479 24.7705 21.1847 24.9314C23.5944 26.5728 26.5022 26.3065 28.7923 24.3063L32.0329 27.0829L28.4618 30.892ZM35.7283 23.6575L32.7373 17.2819L35.1352 15.9992L38.1274 22.3824L35.7283 23.6575ZM25.4438 35.2424C25.3932 35.4586 25.2763 35.6505 25.1118 35.7877C24.9472 35.925 24.7444 35.9997 24.5355 36C24.4585 35.9999 24.3818 35.9898 24.307 35.97L19.4232 34.6674C19.309 34.6373 19.2012 34.5843 19.1056 34.5111L16.0173 32.1584C15.8274 31.9993 15.7024 31.7683 15.6682 31.5134C15.634 31.2585 15.6933 30.9993 15.8338 30.7899C15.9742 30.5804 16.185 30.4369 16.4223 30.389C16.6595 30.3412 16.9049 30.3929 17.1073 30.5332L20.0502 32.7759L24.7664 34.0311C25.0076 34.0954 25.215 34.2593 25.3429 34.4867C25.4708 34.7141 25.5088 34.9864 25.4485 35.2437L25.4438 35.2424Z" fill="url(#paint1_linear_215_67)"/>
<defs>
<linearGradient id="paint0_linear_215_67" x1="24.9837" y1="0" x2="24.9837" y2="54.5462" gradientUnits="userSpaceOnUse">
<stop stop-color="#00CCDD"/>
<stop offset="0.5" stop-color="#3572EF"/>
<stop offset="1" stop-color="#050C9C"/>
</linearGradient>
<linearGradient id="paint1_linear_215_67" x1="24.9902" y1="14" x2="24.9902" y2="38.0003" gradientUnits="userSpaceOnUse">
<stop stop-color="#00CCDD"/>
<stop offset="0.5" stop-color="#3572EF"/>
<stop offset="1" stop-color="#050C9C"/>
</linearGradient>
</defs>
</svg>
