<svg width="50" height="50" viewBox="0 0 50 50" fill="none" xmlns="http://www.w3.org/2000/svg">
<rect x="1" y="1" width="48" height="48" rx="3" fill="#E2F4FC" stroke="url(#paint0_linear_199_105)" stroke-width="2"/>
<path d="M34.2362 14.8325C33.0399 13.6242 31.6171 12.6638 30.0492 12.0061C28.4812 11.3485 26.799 11.0066 25.0987 11H25C21.5521 11 18.2456 12.3696 15.8076 14.8076C13.3696 17.2456 12 20.5522 12 24V31C12 31.7956 12.3161 32.5587 12.8787 33.1213C13.4413 33.6839 14.2043 34 15 34H17C17.7956 34 18.5587 33.6839 19.1213 33.1213C19.6839 32.5587 20 31.7956 20 31V26C20 25.2044 19.6839 24.4413 19.1213 23.8787C18.5587 23.3161 17.7956 23 17 23H14.045C14.2378 20.9149 15.021 18.928 16.3028 17.2721C17.5845 15.6163 19.3117 14.36 21.2818 13.6507C23.252 12.9414 25.3836 12.8083 27.4266 13.2671C29.4697 13.726 31.3397 14.7576 32.8174 16.2413C34.6235 18.0566 35.7345 20.4488 35.9562 23H32.9999C32.2043 23 31.4412 23.3161 30.8786 23.8787C30.316 24.4413 29.9999 25.2044 29.9999 26V31C29.9999 31.7956 30.316 32.5587 30.8786 33.1213C31.4412 33.6839 32.2043 34 32.9999 34H35.9999C35.9999 34.7956 35.6838 35.5587 35.1212 36.1213C34.5586 36.6839 33.7956 37 32.9999 37H25.9999C25.7347 37 25.4804 37.1054 25.2928 37.2929C25.1053 37.4804 25 37.7348 25 38C25 38.2652 25.1053 38.5196 25.2928 38.7071C25.4804 38.8946 25.7347 39 25.9999 39H32.9999C34.326 39 35.5978 38.4732 36.5354 37.5355C37.4731 36.5979 37.9999 35.3261 37.9999 34V24C38.0064 22.2995 37.6773 20.6144 37.0315 19.0412C36.3856 17.4681 35.4357 16.0379 34.2362 14.8325ZM17 25C17.2652 25 17.5195 25.1054 17.7071 25.2929C17.8946 25.4804 18 25.7348 18 26V31C18 31.2652 17.8946 31.5196 17.7071 31.7071C17.5195 31.8946 17.2652 32 17 32H15C14.7348 32 14.4804 31.8946 14.2929 31.7071C14.1053 31.5196 14 31.2652 14 31V25H17ZM32.9999 32C32.7347 32 32.4804 31.8946 32.2928 31.7071C32.1053 31.5196 31.9999 31.2652 31.9999 31V26C31.9999 25.7348 32.1053 25.4804 32.2928 25.2929C32.4804 25.1054 32.7347 25 32.9999 25H35.9999V32H32.9999Z" fill="url(#paint1_linear_199_105)"/>
<defs>
<linearGradient id="paint0_linear_199_105" x1="24.9837" y1="0" x2="24.9837" y2="54.5462" gradientUnits="userSpaceOnUse">
<stop stop-color="#00CCDD"/>
<stop offset="0.5" stop-color="#3572EF"/>
<stop offset="1" stop-color="#050C9C"/>
</linearGradient>
<linearGradient id="paint1_linear_199_105" x1="24.9915" y1="11" x2="24.9915" y2="41.5459" gradientUnits="userSpaceOnUse">
<stop stop-color="#00CCDD"/>
<stop offset="0.5" stop-color="#3572EF"/>
<stop offset="1" stop-color="#050C9C"/>
</linearGradient>
</defs>
</svg>
