<svg width="156" height="125" viewBox="0 0 156 125" fill="none" xmlns="http://www.w3.org/2000/svg">
<mask id="path-1-inside-1_220_123" fill="white">
<path d="M0 90H156V125H0V90Z"/>
</mask>
<path d="M0 92H156V88H0V92ZM156 123H0V127H156V123Z" fill="#00CCDD" mask="url(#path-1-inside-1_220_123)"/>
<path d="M15.5501 114.126C14.7101 114.126 13.9541 113.982 13.2821 113.694C12.6101 113.394 12.0821 112.974 11.6981 112.434C11.3141 111.894 11.1221 111.264 11.1221 110.544H13.3181C13.3661 111.084 13.5761 111.528 13.9481 111.876C14.3321 112.224 14.8661 112.398 15.5501 112.398C16.2581 112.398 16.8101 112.23 17.2061 111.894C17.6021 111.546 17.8001 111.102 17.8001 110.562C17.8001 110.142 17.6741 109.8 17.4221 109.536C17.1821 109.272 16.8761 109.068 16.5041 108.924C16.1441 108.78 15.6401 108.624 14.9921 108.456C14.1761 108.24 13.5101 108.024 12.9941 107.808C12.4901 107.58 12.0581 107.232 11.6981 106.764C11.3381 106.296 11.1581 105.672 11.1581 104.892C11.1581 104.172 11.3381 103.542 11.6981 103.002C12.0581 102.462 12.5621 102.048 13.2101 101.76C13.8581 101.472 14.6081 101.328 15.4601 101.328C16.6721 101.328 17.6621 101.634 18.4301 102.246C19.2101 102.846 19.6421 103.674 19.7261 104.73H17.4581C17.4221 104.274 17.2061 103.884 16.8101 103.56C16.4141 103.236 15.8921 103.074 15.2441 103.074C14.6561 103.074 14.1761 103.224 13.8041 103.524C13.4321 103.824 13.2461 104.256 13.2461 104.82C13.2461 105.204 13.3601 105.522 13.5881 105.774C13.8281 106.014 14.1281 106.206 14.4881 106.35C14.8481 106.494 15.3401 106.65 15.9641 106.818C16.7921 107.046 17.4641 107.274 17.9801 107.502C18.5081 107.73 18.9521 108.084 19.3121 108.564C19.6841 109.032 19.8701 109.662 19.8701 110.454C19.8701 111.09 19.6961 111.69 19.3481 112.254C19.0121 112.818 18.5141 113.274 17.8541 113.622C17.2061 113.958 16.4381 114.126 15.5501 114.126ZM26.5934 114.162C25.6574 114.162 24.8114 113.952 24.0554 113.532C23.2994 113.1 22.7054 112.5 22.2734 111.732C21.8414 110.952 21.6254 110.052 21.6254 109.032C21.6254 108.024 21.8474 107.13 22.2914 106.35C22.7354 105.57 23.3414 104.97 24.1094 104.55C24.8774 104.13 25.7354 103.92 26.6834 103.92C27.6314 103.92 28.4894 104.13 29.2574 104.55C30.0254 104.97 30.6314 105.57 31.0754 106.35C31.5194 107.13 31.7414 108.024 31.7414 109.032C31.7414 110.04 31.5134 110.934 31.0574 111.714C30.6014 112.494 29.9774 113.1 29.1854 113.532C28.4054 113.952 27.5414 114.162 26.5934 114.162ZM26.5934 112.38C27.1214 112.38 27.6134 112.254 28.0694 112.002C28.5374 111.75 28.9154 111.372 29.2034 110.868C29.4914 110.364 29.6354 109.752 29.6354 109.032C29.6354 108.312 29.4974 107.706 29.2214 107.214C28.9454 106.71 28.5794 106.332 28.1234 106.08C27.6674 105.828 27.1754 105.702 26.6474 105.702C26.1194 105.702 25.6274 105.828 25.1714 106.08C24.7274 106.332 24.3734 106.71 24.1094 107.214C23.8454 107.706 23.7134 108.312 23.7134 109.032C23.7134 110.1 23.9834 110.928 24.5234 111.516C25.0754 112.092 25.7654 112.38 26.5934 112.38ZM35.8219 100.68V114H33.7699V100.68H35.8219ZM47.498 104.082V114H45.446V112.83C45.122 113.238 44.696 113.562 44.168 113.802C43.652 114.03 43.1 114.144 42.512 114.144C41.732 114.144 41.03 113.982 40.406 113.658C39.794 113.334 39.308 112.854 38.948 112.218C38.6 111.582 38.426 110.814 38.426 109.914V104.082H40.46V109.608C40.46 110.496 40.682 111.18 41.126 111.66C41.57 112.128 42.176 112.362 42.944 112.362C43.712 112.362 44.318 112.128 44.762 111.66C45.218 111.18 45.446 110.496 45.446 109.608V104.082H47.498ZM54.3815 112.434C55.5695 112.434 56.3555 111.912 56.7395 110.868H58.9535C58.6895 111.78 58.2155 112.53 57.5315 113.118C56.8595 113.694 56.0135 114.03 54.9935 114.126V114.864C55.6895 114.864 56.2535 115.026 56.6855 115.35C57.1175 115.686 57.3335 116.154 57.3335 116.754C57.3335 117.354 57.1175 117.828 56.6855 118.176C56.2535 118.536 55.7075 118.716 55.0475 118.716H52.6715V117.42H54.6335C54.9695 117.42 55.2215 117.372 55.3895 117.276C55.5575 117.18 55.6415 117.006 55.6415 116.754C55.6415 116.502 55.5575 116.328 55.3895 116.232C55.2215 116.136 54.9695 116.088 54.6335 116.088H53.6435V114.108C52.8275 114.012 52.1075 113.742 51.4835 113.298C50.8595 112.842 50.3735 112.254 50.0255 111.534C49.6895 110.802 49.5215 109.968 49.5215 109.032C49.5215 108.012 49.7255 107.118 50.1335 106.35C50.5535 105.57 51.1295 104.97 51.8615 104.55C52.5935 104.13 53.4335 103.92 54.3815 103.92C55.5815 103.92 56.5715 104.208 57.3515 104.784C58.1435 105.348 58.6775 106.158 58.9535 107.214H56.7395C56.5595 106.722 56.2715 106.338 55.8755 106.062C55.4795 105.786 54.9815 105.648 54.3815 105.648C53.5415 105.648 52.8695 105.948 52.3655 106.548C51.8735 107.136 51.6275 107.964 51.6275 109.032C51.6275 110.1 51.8735 110.934 52.3655 111.534C52.8695 112.134 53.5415 112.434 54.3815 112.434ZM65.3004 114.162C64.3644 114.162 63.5184 113.952 62.7624 113.532C62.0064 113.1 61.4124 112.5 60.9804 111.732C60.5484 110.952 60.3324 110.052 60.3324 109.032C60.3324 108.024 60.5544 107.13 60.9984 106.35C61.4424 105.57 62.0484 104.97 62.8164 104.55C63.5844 104.13 64.4424 103.92 65.3904 103.92C66.3384 103.92 67.1964 104.13 67.9644 104.55C68.7324 104.97 69.3384 105.57 69.7824 106.35C70.2264 107.13 70.4484 108.024 70.4484 109.032C70.4484 110.04 70.2204 110.934 69.7644 111.714C69.3084 112.494 68.6844 113.1 67.8924 113.532C67.1124 113.952 66.2484 114.162 65.3004 114.162ZM65.3004 112.38C65.8284 112.38 66.3204 112.254 66.7764 112.002C67.2444 111.75 67.6224 111.372 67.9104 110.868C68.1984 110.364 68.3424 109.752 68.3424 109.032C68.3424 108.312 68.2044 107.706 67.9284 107.214C67.6524 106.71 67.2864 106.332 66.8304 106.08C66.3744 105.828 65.8824 105.702 65.3544 105.702C64.8264 105.702 64.3344 105.828 63.8784 106.08C63.4344 106.332 63.0804 106.71 62.8164 107.214C62.5524 107.706 62.4204 108.312 62.4204 109.032C62.4204 110.1 62.6904 110.928 63.2304 111.516C63.7824 112.092 64.4724 112.38 65.3004 112.38ZM62.4564 102.894C62.5524 102.198 62.7804 101.676 63.1404 101.328C63.5004 100.968 63.9504 100.788 64.4904 100.788C64.7184 100.788 64.9164 100.824 65.0844 100.896C65.2524 100.968 65.4564 101.076 65.6964 101.22C65.8764 101.34 66.0264 101.43 66.1464 101.49C66.2784 101.55 66.4224 101.58 66.5784 101.58C66.7824 101.58 66.9504 101.52 67.0824 101.4C67.2264 101.268 67.3164 101.076 67.3524 100.824H68.5044C68.4084 101.52 68.1804 102.048 67.8204 102.408C67.4604 102.756 67.0104 102.93 66.4704 102.93C66.2424 102.93 66.0384 102.894 65.8584 102.822C65.6784 102.738 65.4804 102.624 65.2644 102.48C65.0484 102.348 64.8804 102.258 64.7604 102.21C64.6524 102.15 64.5264 102.12 64.3824 102.12C64.1784 102.12 64.0044 102.186 63.8604 102.318C63.7284 102.45 63.6444 102.642 63.6084 102.894H62.4564ZM81.567 108.798C81.567 109.17 81.543 109.506 81.495 109.806H73.917C73.977 110.598 74.271 111.234 74.799 111.714C75.327 112.194 75.975 112.434 76.743 112.434C77.847 112.434 78.627 111.972 79.083 111.048H81.297C80.997 111.96 80.451 112.71 79.659 113.298C78.879 113.874 77.907 114.162 76.743 114.162C75.795 114.162 74.943 113.952 74.187 113.532C73.443 113.1 72.855 112.5 72.423 111.732C72.003 110.952 71.793 110.052 71.793 109.032C71.793 108.012 71.997 107.118 72.405 106.35C72.825 105.57 73.407 104.97 74.151 104.55C74.907 104.13 75.771 103.92 76.743 103.92C77.679 103.92 78.513 104.124 79.245 104.532C79.977 104.94 80.547 105.516 80.955 106.26C81.363 106.992 81.567 107.838 81.567 108.798ZM79.425 108.15C79.413 107.394 79.143 106.788 78.615 106.332C78.087 105.876 77.433 105.648 76.653 105.648C75.945 105.648 75.339 105.876 74.835 106.332C74.331 106.776 74.031 107.382 73.935 108.15H79.425ZM87.1863 114.162C86.4063 114.162 85.7043 114.024 85.0803 113.748C84.4683 113.46 83.9823 113.076 83.6223 112.596C83.2623 112.104 83.0703 111.558 83.0463 110.958H85.1703C85.2063 111.378 85.4043 111.732 85.7643 112.02C86.1363 112.296 86.5983 112.434 87.1503 112.434C87.7263 112.434 88.1703 112.326 88.4823 112.11C88.8063 111.882 88.9683 111.594 88.9683 111.246C88.9683 110.874 88.7883 110.598 88.4283 110.418C88.0803 110.238 87.5223 110.04 86.7543 109.824C86.0103 109.62 85.4043 109.422 84.9363 109.23C84.4683 109.038 84.0603 108.744 83.7123 108.348C83.3763 107.952 83.2083 107.43 83.2083 106.782C83.2083 106.254 83.3643 105.774 83.6763 105.342C83.9883 104.898 84.4323 104.55 85.0083 104.298C85.5963 104.046 86.2683 103.92 87.0243 103.92C88.1523 103.92 89.0583 104.208 89.7423 104.784C90.4383 105.348 90.8103 106.122 90.8583 107.106H88.8063C88.7703 106.662 88.5903 106.308 88.2663 106.044C87.9423 105.78 87.5043 105.648 86.9523 105.648C86.4123 105.648 85.9983 105.75 85.7103 105.954C85.4223 106.158 85.2783 106.428 85.2783 106.764C85.2783 107.028 85.3743 107.25 85.5663 107.43C85.7583 107.61 85.9923 107.754 86.2683 107.862C86.5443 107.958 86.9523 108.084 87.4923 108.24C88.2123 108.432 88.8003 108.63 89.2563 108.834C89.7243 109.026 90.1263 109.314 90.4623 109.698C90.7983 110.082 90.9723 110.592 90.9843 111.228C90.9843 111.792 90.8283 112.296 90.5163 112.74C90.2043 113.184 89.7603 113.532 89.1843 113.784C88.6203 114.036 87.9543 114.162 87.1863 114.162ZM106.967 108.798C106.967 109.17 106.943 109.506 106.895 109.806H99.3173C99.3773 110.598 99.6713 111.234 100.199 111.714C100.727 112.194 101.375 112.434 102.143 112.434C103.247 112.434 104.027 111.972 104.483 111.048H106.697C106.397 111.96 105.851 112.71 105.059 113.298C104.279 113.874 103.307 114.162 102.143 114.162C101.195 114.162 100.343 113.952 99.5873 113.532C98.8433 113.1 98.2553 112.5 97.8233 111.732C97.4033 110.952 97.1933 110.052 97.1933 109.032C97.1933 108.012 97.3973 107.118 97.8053 106.35C98.2253 105.57 98.8073 104.97 99.5513 104.55C100.307 104.13 101.171 103.92 102.143 103.92C103.079 103.92 103.913 104.124 104.645 104.532C105.377 104.94 105.947 105.516 106.355 106.26C106.763 106.992 106.967 107.838 106.967 108.798ZM104.825 108.15C104.813 107.394 104.543 106.788 104.015 106.332C103.487 105.876 102.833 105.648 102.053 105.648C101.345 105.648 100.739 105.876 100.235 106.332C99.7313 106.776 99.4313 107.382 99.3353 108.15H104.825ZM120.993 103.92C121.773 103.92 122.469 104.082 123.081 104.406C123.705 104.73 124.191 105.21 124.539 105.846C124.899 106.482 125.079 107.25 125.079 108.15V114H123.045V108.456C123.045 107.568 122.823 106.89 122.379 106.422C121.935 105.942 121.329 105.702 120.561 105.702C119.793 105.702 119.181 105.942 118.725 106.422C118.281 106.89 118.059 107.568 118.059 108.456V114H116.025V108.456C116.025 107.568 115.803 106.89 115.359 106.422C114.915 105.942 114.309 105.702 113.541 105.702C112.773 105.702 112.161 105.942 111.705 106.422C111.261 106.89 111.039 107.568 111.039 108.456V114H108.987V104.082H111.039V105.216C111.375 104.808 111.801 104.49 112.317 104.262C112.833 104.034 113.385 103.92 113.973 103.92C114.765 103.92 115.473 104.088 116.097 104.424C116.721 104.76 117.201 105.246 117.537 105.882C117.837 105.282 118.305 104.808 118.941 104.46C119.577 104.1 120.261 103.92 120.993 103.92ZM140.448 101.49V103.164H137.118V114H135.066V103.164H131.718V101.49H140.448ZM144.578 101.49V114H142.526V101.49H144.578Z" fill="white"/>
<path fill-rule="evenodd" clip-rule="evenodd" d="M75.7316 0.106638C91.6483 -0.707322 109.4 2.83572 115.359 21.2957C122.04 41.9885 107.215 60.647 90.8121 71.8406C76.9299 81.3141 70.76 73.4195 59.3155 60.0737C49.9393 49.1398 35.0081 37.4782 41.6511 23.8162C48.3909 9.95524 62.9982 0.757806 75.7316 0.106638Z" fill="url(#paint0_linear_220_123)"/>
<path d="M60.3589 30.2695C60.7182 29.7162 61.2141 29.2694 61.8465 28.9289C62.4789 28.5884 63.2192 28.4182 64.0672 28.4182C65.0589 28.4182 65.9573 28.6664 66.7622 29.163C67.5671 29.6595 68.1995 30.3688 68.6595 31.291C69.1338 32.2131 69.3709 33.2842 69.3709 34.5042C69.3709 35.7243 69.1338 36.8025 68.6595 37.7388C68.1995 38.6609 67.5671 39.3774 66.7622 39.8881C65.9573 40.3846 65.0589 40.6329 64.0672 40.6329C63.2335 40.6329 62.4933 40.4626 61.8465 40.1222C61.2141 39.7817 60.7182 39.3419 60.3589 38.8028V46.1231H56.6721V28.5884H60.3589V30.2695ZM65.6195 34.5042C65.6195 33.5963 65.3608 32.887 64.8433 32.3762C64.3403 31.8513 63.715 31.5889 62.9676 31.5889C62.2346 31.5889 61.6093 31.8513 61.0919 32.3762C60.5888 32.9011 60.3373 33.6176 60.3373 34.5255C60.3373 35.4335 60.5888 36.1499 61.0919 36.6748C61.6093 37.1997 62.2346 37.4622 62.9676 37.4622C63.7007 37.4622 64.3259 37.1997 64.8433 36.6748C65.3608 36.1357 65.6195 35.4122 65.6195 34.5042Z" fill="white"/>
<path d="M74.9919 24.7154V40.4626H71.3051V24.7154H74.9919Z" fill="white"/>
<path d="M89.5432 28.5884V40.4626H85.8564V38.8454C85.4827 39.3703 84.9725 39.7959 84.3257 40.1222C83.6932 40.4343 82.9889 40.5903 82.2128 40.5903C81.2929 40.5903 80.4808 40.3917 79.7765 39.9945C79.0722 39.5831 78.526 38.9943 78.1379 38.2282C77.7499 37.4622 77.5558 36.5613 77.5558 35.5257V28.5884H81.221V35.0362C81.221 35.8307 81.4294 36.4478 81.8463 36.8876C82.2631 37.3274 82.8237 37.5473 83.5279 37.5473C84.2466 37.5473 84.8144 37.3274 85.2312 36.8876C85.648 36.4478 85.8564 35.8307 85.8564 35.0362V28.5884H89.5432Z" fill="white"/>
<path d="M96.7621 28.4182C97.6101 28.4182 98.3503 28.5884 98.9828 28.9289C99.6296 29.2694 100.125 29.7162 100.47 30.2695V28.5884H104.157V40.4414C104.157 41.5337 103.934 42.5197 103.489 43.3993C103.058 44.293 102.389 45.0024 101.484 45.5273C100.593 46.0522 99.4786 46.3146 98.1419 46.3146C96.3596 46.3146 94.9151 45.8961 93.8084 45.0591C92.7016 44.2363 92.0692 43.1155 91.9111 41.6969H95.5547C95.6697 42.1509 95.9428 42.5055 96.374 42.7609C96.8052 43.0304 97.337 43.1652 97.9694 43.1652C98.7312 43.1652 99.3349 42.9453 99.7805 42.5055C100.24 42.0799 100.47 41.3919 100.47 40.4414V38.7602C100.111 39.3135 99.6152 39.7675 98.9828 40.1222C98.3503 40.4626 97.6101 40.6329 96.7621 40.6329C95.7703 40.6329 94.872 40.3846 94.0671 39.8881C93.2622 39.3774 92.6226 38.6609 92.1482 37.7388C91.6883 36.8025 91.4583 35.7243 91.4583 34.5042C91.4583 33.2842 91.6883 32.2131 92.1482 31.291C92.6226 30.3688 93.2622 29.6595 94.0671 29.163C94.872 28.6664 95.7703 28.4182 96.7621 28.4182ZM100.47 34.5255C100.47 33.6176 100.212 32.9011 99.6942 32.3762C99.1912 31.8513 98.5731 31.5889 97.8401 31.5889C97.107 31.5889 96.4818 31.8513 95.9644 32.3762C95.4613 32.887 95.2098 33.5963 95.2098 34.5042C95.2098 35.4122 95.4613 36.1357 95.9644 36.6748C96.4818 37.1997 97.107 37.4622 97.8401 37.4622C98.5731 37.4622 99.1912 37.1997 99.6942 36.6748C100.212 36.1499 100.47 35.4335 100.47 34.5255Z" fill="white"/>
<defs>
<linearGradient id="paint0_linear_220_123" x1="78.4748" y1="0" x2="78.4748" y2="82.9103" gradientUnits="userSpaceOnUse">
<stop stop-color="#00CCDD"/>
<stop offset="0.5" stop-color="#3572EF"/>
<stop offset="1" stop-color="#050C9C"/>
</linearGradient>
</defs>
</svg>
