<svg width="100" height="100" viewBox="0 0 100 100" fill="none" xmlns="http://www.w3.org/2000/svg">
<path fill-rule="evenodd" clip-rule="evenodd" d="M46.4046 0.140313C67.0757 -0.930687 90.1299 3.73121 97.8695 28.0207C106.545 55.248 87.2921 79.7987 65.9897 94.5271C47.9609 106.992 39.9481 96.6047 25.0851 79.0444C12.9082 64.6576 -6.48301 49.3134 2.14431 31.3371C10.8973 13.099 29.8678 0.997113 46.4046 0.140313Z" fill="url(#paint0_linear_112_194)"/>
<path d="M26.4401 39.8283C26.9067 39.1003 27.5507 38.5123 28.3721 38.0643C29.1934 37.6163 30.1547 37.3923 31.2561 37.3923C32.5441 37.3923 33.7107 37.719 34.7561 38.3723C35.8014 39.0256 36.6227 39.959 37.2201 41.1723C37.8361 42.3856 38.1441 43.795 38.1441 45.4003C38.1441 47.0056 37.8361 48.4243 37.2201 49.6563C36.6227 50.8696 35.8014 51.8123 34.7561 52.4843C33.7107 53.1376 32.5441 53.4643 31.2561 53.4643C30.1734 53.4643 29.2121 53.2403 28.3721 52.7923C27.5507 52.3443 26.9067 51.7656 26.4401 51.0563V60.6883H21.6521V37.6163H26.4401V39.8283ZM33.2721 45.4003C33.2721 44.2056 32.9361 43.2723 32.2641 42.6003C31.6107 41.9096 30.7987 41.5643 29.8281 41.5643C28.8761 41.5643 28.0641 41.9096 27.3921 42.6003C26.7387 43.291 26.4121 44.2336 26.4121 45.4283C26.4121 46.623 26.7387 47.5656 27.3921 48.2563C28.0641 48.947 28.8761 49.2923 29.8281 49.2923C30.7801 49.2923 31.5921 48.947 32.2641 48.2563C32.9361 47.547 33.2721 46.595 33.2721 45.4003Z" fill="white"/>
<path d="M45.444 32.5203V53.2403H40.656V32.5203H45.444Z" fill="white"/>
<path d="M64.3418 37.6163V53.2403H59.5538V51.1123C59.0685 51.803 58.4058 52.363 57.5658 52.7923C56.7445 53.203 55.8298 53.4083 54.8218 53.4083C53.6271 53.4083 52.5725 53.147 51.6578 52.6243C50.7431 52.083 50.0338 51.3083 49.5298 50.3003C49.0258 49.2923 48.7738 48.107 48.7738 46.7443V37.6163H53.5338V46.1003C53.5338 47.1456 53.8045 47.9576 54.3458 48.5363C54.8871 49.115 55.6151 49.4043 56.5298 49.4043C57.4631 49.4043 58.2005 49.115 58.7418 48.5363C59.2831 47.9576 59.5538 47.1456 59.5538 46.1003V37.6163H64.3418Z" fill="white"/>
<path d="M73.717 37.3923C74.8183 37.3923 75.7796 37.6163 76.601 38.0643C77.441 38.5123 78.085 39.1003 78.533 39.8283V37.6163H83.321V53.2123C83.321 54.6496 83.0316 55.947 82.453 57.1043C81.893 58.2803 81.025 59.2136 79.849 59.9043C78.6917 60.595 77.245 60.9403 75.509 60.9403C73.1943 60.9403 71.3183 60.3896 69.881 59.2883C68.4436 58.2056 67.6223 56.731 67.417 54.8643H72.149C72.2983 55.4616 72.653 55.9283 73.213 56.2643C73.773 56.619 74.4636 56.7963 75.285 56.7963C76.2743 56.7963 77.0583 56.507 77.637 55.9283C78.2343 55.3683 78.533 54.463 78.533 53.2123V51.0003C78.0663 51.7283 77.4223 52.3256 76.601 52.7923C75.7796 53.2403 74.8183 53.4643 73.717 53.4643C72.429 53.4643 71.2623 53.1376 70.217 52.4843C69.1716 51.8123 68.341 50.8696 67.725 49.6563C67.1276 48.4243 66.829 47.0056 66.829 45.4003C66.829 43.795 67.1276 42.3856 67.725 41.1723C68.341 39.959 69.1716 39.0256 70.217 38.3723C71.2623 37.719 72.429 37.3923 73.717 37.3923ZM78.533 45.4283C78.533 44.2336 78.197 43.291 77.525 42.6003C76.8717 41.9096 76.069 41.5643 75.117 41.5643C74.165 41.5643 73.353 41.9096 72.681 42.6003C72.0276 43.2723 71.701 44.2056 71.701 45.4003C71.701 46.595 72.0276 47.547 72.681 48.2563C73.353 48.947 74.165 49.2923 75.117 49.2923C76.069 49.2923 76.8717 48.947 77.525 48.2563C78.197 47.5656 78.533 46.623 78.533 45.4283Z" fill="white"/>
<defs>
<linearGradient id="paint0_linear_112_194" x1="49.9673" y1="0" x2="49.9673" y2="109.092" gradientUnits="userSpaceOnUse">
<stop stop-color="#00CCDD"/>
<stop offset="0.515625" stop-color="#3572EF"/>
<stop offset="0.96875" stop-color="#050C9C"/>
</linearGradient>
</defs>
</svg>
